<svg width="46" height="46" viewBox="0 0 46 46" fill="none" xmlns="http://www.w3.org/2000/svg">
<path d="M45.3145 23.1565C45.3145 10.8327 35.3239 0.842041 23 0.842041C10.6762 0.842041 0.685547 10.8327 0.685547 23.1565C0.685547 34.2943 8.84568 43.526 19.5134 45.2V29.6068H13.8476V23.1565H19.5134V18.2404C19.5134 12.6478 22.8449 9.55864 27.942 9.55864C30.3834 9.55864 32.937 9.99447 32.937 9.99447V15.4859H30.1233C27.3512 15.4859 26.4867 17.2061 26.4867 18.9708V23.1565H32.6755L31.6861 29.6068H26.4867V45.2C37.1544 43.526 45.3145 34.2944 45.3145 23.1565Z" fill="#1877F2"/>
<path d="M31.6862 29.6068L32.6755 23.1565H26.4867V18.9708C26.4867 17.2058 27.3512 15.4859 30.1233 15.4859H32.937V9.99442C32.937 9.99442 30.3834 9.55859 27.9419 9.55859C22.8449 9.55859 19.5134 12.6478 19.5134 18.2403V23.1565H13.8477V29.6068H19.5134V45.1999C20.6669 45.3806 21.8326 45.4713 23.0001 45.471C24.1676 45.4713 25.3333 45.3806 26.4867 45.1999V29.6068H31.6862Z" fill="white"/>
</svg>
