<svg width="46" height="46" viewBox="0 0 46 46" fill="none" xmlns="http://www.w3.org/2000/svg">
<path d="M34.8546 0.842041H11.1455C5.36861 0.842041 0.685547 5.52511 0.685547 11.302V35.0111C0.685547 40.788 5.36861 45.471 11.1455 45.471H34.8546C40.6315 45.471 45.3145 40.788 45.3145 35.0111V11.302C45.3145 5.52511 40.6315 0.842041 34.8546 0.842041Z" fill="url(#paint0_radial_348_626)"/>
<path d="M34.8546 0.842041H11.1455C5.36861 0.842041 0.685547 5.52511 0.685547 11.302V35.0111C0.685547 40.788 5.36861 45.471 11.1455 45.471H34.8546C40.6315 45.471 45.3145 40.788 45.3145 35.0111V11.302C45.3145 5.52511 40.6315 0.842041 34.8546 0.842041Z" fill="url(#paint1_radial_348_626)"/>
<path d="M23.0017 5.72339C18.2672 5.72339 17.6729 5.74413 15.8134 5.82869C13.9575 5.91376 12.6906 6.20751 11.5822 6.63863C10.4355 7.08388 9.46287 7.67957 8.49393 8.64885C7.52412 9.61797 6.92843 10.5906 6.48179 11.7368C6.04945 12.8455 5.75535 14.1129 5.67184 15.968C5.58869 17.8276 5.56689 18.4221 5.56689 23.1568C5.56689 27.8914 5.58781 28.4838 5.67219 30.3433C5.75761 32.1992 6.05136 33.4661 6.48214 34.5745C6.92773 35.7212 7.52342 36.6938 8.49271 37.6628C9.46147 38.6326 10.4341 39.2297 11.58 39.6749C12.6892 40.106 13.9563 40.3998 15.8119 40.4848C17.6715 40.5694 18.2652 40.5901 22.9996 40.5901C27.7346 40.5901 28.327 40.5694 30.1864 40.4848C32.0423 40.3998 33.3106 40.106 34.4199 39.6749C35.5661 39.2297 36.5373 38.6326 37.5059 37.6628C38.4757 36.6938 39.0712 35.7212 39.5181 34.575C39.9466 33.4661 40.2408 32.1988 40.328 30.3436C40.4115 28.4842 40.4333 27.8914 40.4333 23.1568C40.4333 18.4221 40.4115 17.828 40.328 15.9684C40.2408 14.1124 39.9466 12.8457 39.5181 11.7373C39.0712 10.5906 38.4757 9.61797 37.5059 8.64885C36.5363 7.67922 35.5665 7.08353 34.4188 6.63881C33.3075 6.20751 32.0399 5.91358 30.184 5.82869C28.3244 5.74413 27.7323 5.72339 22.9963 5.72339H23.0017ZM21.4377 8.86503C21.902 8.86433 22.4199 8.86503 23.0017 8.86503C27.6565 8.86503 28.2081 8.88176 30.0462 8.96527C31.746 9.04302 32.6685 9.32701 33.2831 9.56567C34.0967 9.88156 34.6767 10.2593 35.2865 10.8697C35.8967 11.4798 36.2743 12.0609 36.591 12.8745C36.8297 13.4881 37.114 14.4107 37.1914 16.1104C37.2749 17.9482 37.2931 18.5002 37.2931 23.1528C37.2931 27.8053 37.2749 28.3574 37.1914 30.1951C37.1137 31.8948 36.8297 32.8174 36.591 33.4312C36.2751 34.2448 35.8967 34.8241 35.2865 35.4339C34.6763 36.0441 34.097 36.4217 33.2831 36.7378C32.6692 36.9775 31.746 37.2607 30.0462 37.3385C28.2084 37.422 27.6565 37.4401 23.0017 37.4401C18.3467 37.4401 17.7949 37.422 15.9573 37.3385C14.2575 37.26 13.335 36.9761 12.7199 36.7374C11.9065 36.4213 11.3253 36.0437 10.7151 35.4336C10.1049 34.8234 9.72733 34.2438 9.41057 33.4298C9.17191 32.816 8.88757 31.8934 8.81017 30.1937C8.72666 28.3559 8.70993 27.8039 8.70993 23.1484C8.70993 18.4929 8.72666 17.9439 8.81017 16.1061C8.88792 14.4063 9.17191 13.4838 9.41057 12.8693C9.72663 12.0556 10.1049 11.4746 10.7153 10.8644C11.3256 10.2543 11.9065 9.8765 12.7201 9.55991C13.3346 9.32021 14.2575 9.03692 15.9573 8.95882C17.5655 8.88612 18.1887 8.86433 21.4377 8.86067V8.86503ZM32.3075 11.7596C31.1526 11.7596 30.2155 12.6958 30.2155 13.8509C30.2155 15.0059 31.1526 15.9429 32.3075 15.9429C33.4625 15.9429 34.3995 15.0059 34.3995 13.8509C34.3995 12.696 33.4625 11.7589 32.3075 11.7589V11.7596ZM23.0017 14.2039C18.0576 14.2039 14.049 18.2125 14.049 23.1568C14.049 28.101 18.0576 32.1077 23.0017 32.1077C27.9459 32.1077 31.9531 28.101 31.9531 23.1568C31.9531 18.2127 27.9455 14.2039 23.0013 14.2039H23.0017ZM23.0017 17.3456C26.2109 17.3456 28.8128 19.9471 28.8128 23.1568C28.8128 26.366 26.2109 28.9679 23.0017 28.9679C19.7924 28.9679 17.1907 26.366 17.1907 23.1568C17.1907 19.9471 19.7922 17.3456 23.0017 17.3456Z" fill="white"/>
<defs>
<radialGradient id="paint0_radial_348_626" cx="0" cy="0" r="1" gradientUnits="userSpaceOnUse" gradientTransform="translate(12.5401 48.9083) rotate(-90) scale(44.2307 41.138)">
<stop stop-color="#FFDD55"/>
<stop offset="0.1" stop-color="#FFDD55"/>
<stop offset="0.5" stop-color="#FF543E"/>
<stop offset="1" stop-color="#C837AB"/>
</radialGradient>
<radialGradient id="paint1_radial_348_626" cx="0" cy="0" r="1" gradientUnits="userSpaceOnUse" gradientTransform="translate(-6.78998 4.0569) rotate(78.681) scale(19.7713 81.4981)">
<stop stop-color="#3771C8"/>
<stop offset="0.128" stop-color="#3771C8"/>
<stop offset="1" stop-color="#6600FF" stop-opacity="0"/>
</radialGradient>
</defs>
</svg>
