<svg width="45" height="46" viewBox="0 0 45 46" fill="none" xmlns="http://www.w3.org/2000/svg">
<path d="M1.61713 22.8894C1.6161 26.6391 2.59586 30.3004 4.45886 33.5275L1.43896 44.5536L12.7228 41.595C15.8438 43.294 19.3406 44.1842 22.8941 44.1845H22.9034C34.6341 44.1845 44.1832 34.6389 44.1882 22.9061C44.1904 17.2208 41.9784 11.8747 37.9593 7.85251C33.941 3.83071 28.5967 1.61466 22.9026 1.61206C11.1705 1.61206 1.62215 11.1571 1.61731 22.8894" fill="url(#paint0_linear_348_624)"/>
<path d="M0.857453 22.8825C0.856242 26.7672 1.87112 30.5594 3.80054 33.9021L0.672363 45.3235L12.3608 42.2588C15.5814 44.0147 19.2074 44.9405 22.8971 44.9419H22.9066C35.0581 44.9419 44.9502 35.0529 44.9554 22.9002C44.9575 17.0105 42.6658 11.4722 38.5032 7.30598C34.3401 3.14026 28.8047 0.844463 22.9066 0.842041C10.753 0.842041 0.862296 10.7296 0.857453 22.8825ZM7.81837 33.3264L7.38193 32.6336C5.5473 29.7165 4.57896 26.3454 4.58034 22.8839C4.58415 12.7827 12.8049 4.56458 22.9135 4.56458C27.8089 4.56666 32.4095 6.47498 35.8698 9.93736C39.3299 13.4001 41.2339 18.0031 41.2327 22.8988C41.2282 33 33.0073 41.2192 22.9066 41.2192H22.8993C19.6105 41.2174 16.3849 40.3342 13.5719 38.6651L12.9024 38.2681L5.96626 40.0867L7.81837 33.3264Z" fill="url(#paint1_linear_348_624)"/>
<path d="M17.3959 13.6681C16.9832 12.7508 16.5488 12.7323 16.1563 12.7162C15.8349 12.7023 15.4675 12.7034 15.1005 12.7034C14.7331 12.7034 14.1361 12.8416 13.6315 13.3925C13.1264 13.944 11.7031 15.2766 11.7031 17.9871C11.7031 20.6975 13.6774 23.3171 13.9526 23.6851C14.2281 24.0523 17.7638 29.7925 23.3636 32.0008C28.0174 33.8359 28.9645 33.4709 29.9745 33.3789C30.9848 33.2872 33.2342 32.0466 33.6931 30.7601C34.1524 29.4739 34.1524 28.3713 34.0147 28.1409C33.877 27.9113 33.5096 27.7735 32.9586 27.4981C32.4077 27.2227 29.699 25.8897 29.1941 25.7058C28.689 25.5221 28.3217 25.4304 27.9543 25.9821C27.5869 26.5328 26.5319 27.7735 26.2103 28.1409C25.8891 28.5091 25.5675 28.555 25.0167 28.2794C24.4655 28.003 22.6912 27.422 20.5862 25.5453C18.9484 24.085 17.8427 22.2817 17.5213 21.73C17.1999 21.1793 17.4869 20.8807 17.7632 20.6062C18.0107 20.3593 18.3143 19.9629 18.59 19.6413C18.8647 19.3195 18.9564 19.09 19.1401 18.7226C19.324 18.3548 19.2319 18.0331 19.0944 17.7575C18.9564 17.482 17.8858 14.7574 17.3959 13.6681Z" fill="white"/>
<defs>
<linearGradient id="paint0_linear_348_624" x1="2138.9" y1="4295.77" x2="2138.9" y2="1.61206" gradientUnits="userSpaceOnUse">
<stop stop-color="#1FAF38"/>
<stop offset="1" stop-color="#60D669"/>
</linearGradient>
<linearGradient id="paint1_linear_348_624" x1="2214.82" y1="4448.99" x2="2214.82" y2="0.842041" gradientUnits="userSpaceOnUse">
<stop stop-color="#F9F9F9"/>
<stop offset="1" stop-color="white"/>
</linearGradient>
</defs>
</svg>
